<?xml version="1.0" encoding="utf-8"?>
<!-- Generator: Adobe Illustrator 23.0.1, SVG Export Plug-In . SVG Version: 6.00 Build 0)  -->
<svg version="1.1" id="Layer_1" xmlns="http://www.w3.org/2000/svg" xmlns:xlink="http://www.w3.org/1999/xlink" x="0px" y="0px"
	 viewBox="0 0 16 16" style="enable-background:new 0 0 16 16;" xml:space="preserve">
<style type="text/css">
	.st0{fill:#D3D3D3;}
</style>
<path id="Path_1" class="st0" d="M15.31,1.82c-1.08-0.85-2.61-0.85-3.69,0C11.44,2,11.2,2.1,10.94,2.09
	C10.69,2.1,10.44,2,10.26,1.82c-1.08-0.85-2.61-0.85-3.69,0C6.39,2,6.15,2.1,5.89,2.09C5.63,2.1,5.39,2,5.2,1.82
	C4.68,1.4,4.03,1.18,3.36,1.18C2.69,1.18,2.04,1.4,1.51,1.82C1.33,2,1.08,2.1,0.83,2.09v1.99C1.5,4.09,2.15,3.86,2.67,3.44
	C2.85,3.26,3.1,3.16,3.36,3.17c0.26-0.01,0.5,0.09,0.69,0.27c0.52,0.42,1.17,0.65,1.84,0.64c0.67,0.01,1.32-0.22,1.84-0.64
	c0.19-0.18,0.43-0.27,0.69-0.27c0.25-0.01,0.5,0.09,0.68,0.27c0.17,0.13,0.35,0.24,0.54,0.34L6.41,7C5.75,6.6,5,6.38,4.22,6.38
	C1.89,6.38,0,8.27,0,10.6s1.88,4.22,4.21,4.22s4.22-1.88,4.22-4.21c0,0,0,0,0,0c0-0.77-0.22-1.53-0.62-2.19l4.98-4.97
	c0.18-0.18,0.43-0.27,0.68-0.27c0.26-0.01,0.5,0.09,0.69,0.27c0.52,0.42,1.17,0.65,1.84,0.64V2.09C15.74,2.1,15.5,2,15.31,1.82z
	 M4.22,8.37c0.24,0,0.48,0.05,0.7,0.12l-2.8,2.8c-0.08-0.22-0.13-0.46-0.13-0.7C1.99,9.37,2.99,8.37,4.22,8.37
	C4.22,8.37,4.22,8.37,4.22,8.37z M6.45,10.6c0,1.23-1,2.23-2.23,2.23c-0.24,0-0.48-0.04-0.7-0.12l2.8-2.8
	C6.4,10.13,6.44,10.36,6.45,10.6L6.45,10.6z"/>
</svg>
